<svg width="400" height="400" viewBox="0 0 400 400" fill="none" xmlns="http://www.w3.org/2000/svg">
<path d="M365.719 328.265L335.193 286.09L283.038 214.039L282.943 213.913H195.956L235.715 268.831C217.782 276.974 197.605 278.748 178.527 273.859C159.448 268.969 142.611 257.709 130.806 241.944C119.001 226.179 112.935 206.854 113.613 187.17C114.29 167.486 121.671 148.624 134.533 133.708C147.395 118.792 164.966 108.717 184.335 105.151C203.706 101.586 223.712 104.743 241.043 114.101C258.373 123.458 271.987 138.455 279.63 156.607C287.273 174.759 288.487 194.977 283.07 213.913H364.038C368.84 180.545 363.327 146.506 348.24 116.358C333.153 86.2099 309.211 61.3935 279.624 45.2344C250.037 29.0752 216.218 22.3452 182.698 25.9462C149.179 29.5473 117.561 43.3073 92.0813 65.3824C66.6019 87.4576 48.4782 116.793 40.1389 149.458C31.8 182.122 33.6435 216.555 45.4233 248.143C57.203 279.73 78.3557 306.962 106.047 326.19C133.738 345.418 166.645 355.723 200.357 355.724C229.268 355.74 257.671 348.131 282.702 333.665L312.629 375L365.719 328.265Z" fill="#4C9FFF"/>
<path d="M335.161 286.079C350.408 264.673 360.3 239.922 364.007 213.903L283.006 214.04L335.161 286.079Z" fill="#3D3EE1"/>
</svg>
